<svg width="1920" height="2781" viewBox="0 0 1920 2781" fill="none" xmlns="http://www.w3.org/2000/svg">
<path d="M0.499855 880.063L0.499805 2781M226.441 0L226.441 2781M452.382 0L452.382 2781M678.323 0L678.323 2781M113.47 0L113.47 2781M339.412 0L339.412 2781M565.353 0L565.353 2781M791.294 0L791.294 2781M904.265 0L904.265 2781M1016.24 0L1016.24 2781M1242.18 0V2781M1468.12 0V2781M1694.06 0V2781M1129.21 0V2781M1355.15 0V2781M1581.09 0V2781M1807.03 0V2781M1920 0V2781M6.41501e-05 2723.8H1919.5M5.42739e-05 2326.01H1919.5M5.9212e-05 2524.9H1919.5M4.93358e-05 2127.11H1919.5M4.43977e-05 1928.22H1919.5M3.95033e-05 1731.08H1919.5M2.96271e-05 1333.3H1919.5M1.97509e-05 935.507H1919.5M9.8747e-06 537.719L1919.5 537.719M3.45652e-05 1532.19H1919.5M2.4689e-05 1134.4H1919.5M1.48128e-05 736.613H1919.5M4.9366e-06 338.824L1919.5 338.824M0 139.93L1919.5 139.93" stroke="url(#paint0_radial_107_1015)" stroke-opacity="0.2"/>
<defs>
<radialGradient id="paint0_radial_107_1015" cx="0" cy="0" r="1" gradientUnits="userSpaceOnUse" gradientTransform="translate(1001.24 1677.4) rotate(100.332) scale(1711.31 1037.93)">
<stop stop-color="#D3A8B5"/>
<stop offset="1" stop-color="#D3A8B5" stop-opacity="0"/>
</radialGradient>
</defs>
</svg>
