<svg width="349" height="162" viewBox="0 0 349 162" fill="none" xmlns="http://www.w3.org/2000/svg">
<path d="M240.912 66.628C248.136 68.4608 254.389 69.6468 264.631 67.8139C267.758 67.2749 269.59 65.9811 263.984 66.4124C258.378 66.8436 248.782 66.8436 243.715 65.6577C238.648 64.4718 237.57 65.2264 240.912 66.628Z" fill="#7B1C14"/>
<path d="M254.821 93.5804C265.387 88.621 273.041 80.4272 283.715 56.9241C273.796 87.4351 269.699 103.93 274.874 103.93C280.373 103.93 286.195 97.6773 294.82 81.1819C303.552 64.7944 300.749 70.5085 306.571 56.9241" stroke="black" stroke-width="3" stroke-miterlimit="10" stroke-linecap="round" stroke-linejoin="round"/>
<path d="M236.656 160.148C238.597 138.693 253.367 99.2338 262.316 69.1541" stroke="#1F6031" stroke-width="3" stroke-miterlimit="10" stroke-linecap="round" stroke-linejoin="round"/>
<path d="M240.05 145.762C254.389 142.528 267.542 136.921 267.111 118.27C258.594 130.56 247.813 126.14 240.05 145.762Z" stroke="#1F6031" stroke-width="3" stroke-miterlimit="10" stroke-linecap="round" stroke-linejoin="round"/>
<path d="M36.7158 56.2772C36.7158 56.2772 28.6298 79.6726 26.5814 85.4945C24.533 91.3163 23.6705 103.93 29.1689 103.93C37.4705 103.93 49.3299 82.6913 64.208 51.5334" stroke="black" stroke-width="3" stroke-miterlimit="10" stroke-linecap="round" stroke-linejoin="round"/>
<path d="M80.9186 103.928C82.8592 95.8416 99.678 36.0055 99.678 36.0055C101.187 30.507 102.589 27.4883 104.314 27.4883C106.039 27.4883 105.931 44.5227 92.8858 60.0477" stroke="black" stroke-width="3" stroke-miterlimit="10" stroke-linecap="round" stroke-linejoin="round"/>
<path d="M154.123 81.2901C145.822 95.737 139.029 104.039 134.717 104.039C131.051 104.039 129.326 97.1386 131.806 85.9261C133.1 79.9964 136.55 67.0588 136.55 67.0588" stroke="black" stroke-width="3" stroke-miterlimit="10" stroke-linecap="round" stroke-linejoin="round"/>
<path d="M204.473 27.4883C204.473 27.4883 189.81 79.6696 188.408 85.5993C185.713 96.9197 188.085 104.035 193.583 104.035C201.885 104.035 209.108 83.8743 226.898 57.4602" stroke="black" stroke-width="3" stroke-miterlimit="10" stroke-linecap="round" stroke-linejoin="round"/>
<path d="M187.438 54.8752H209.971" stroke="black" stroke-width="3" stroke-miterlimit="10" stroke-linecap="round" stroke-linejoin="round"/>
<path d="M36.7157 56.2748C22.161 51.6389 2 75.6811 2 94.764C2 100.37 4.47968 103.928 8.0375 103.928C12.6734 103.928 20.1125 99.939 29.1688 77.7296" stroke="black" stroke-width="3" stroke-miterlimit="10" stroke-linecap="round" stroke-linejoin="round"/>
<path d="M83.7216 93.3654C93.7481 69.431 103.451 56.3857 109.704 56.3857C115.311 56.3857 116.712 63.1779 110.783 80.7513C104.853 98.3248 104.422 103.931 108.626 103.931C112.831 103.931 114.987 103.069 136.55 66.8435C136.55 66.8435 146.037 56.9247 157.25 42.4778C166.845 30.1872 177.087 19.4059 177.087 9.91837C177.087 4.74336 174.823 2.37148 171.481 2.37148C168.139 2.37148 160.592 5.8215 153.476 27.384C158.975 15.7403 162.748 1.72461 155.417 1.72461C147.331 1.72461 142.911 13.1527 141.401 28.7856C139.892 44.4184 139.569 50.5638 136.442 66.8435" stroke="black" stroke-width="3" stroke-miterlimit="10" stroke-linecap="round" stroke-linejoin="round"/>
<path d="M154.124 81.2898C165.121 79.0257 176.441 70.6163 176.441 61.9913C176.441 58.9725 174.716 56.6006 171.697 56.6006C161.132 56.6006 152.507 81.2898 152.507 91.532C152.507 100.48 155.31 103.93 159.515 103.93C165.983 103.93 180.969 94.7663 197.68 51.5334" stroke="black" stroke-width="3" stroke-miterlimit="10" stroke-linecap="round" stroke-linejoin="round"/>
<path d="M317.675 81.2885C328.672 79.0244 339.992 70.615 339.992 61.99C339.992 58.9712 338.267 56.5994 335.248 56.5994C324.683 56.5994 316.058 81.2885 316.058 91.5307C316.058 100.479 318.861 103.929 323.066 103.929C327.702 103.929 336.111 98.9698 347 80.426" stroke="black" stroke-width="3" stroke-miterlimit="10" stroke-linecap="round" stroke-linejoin="round"/>
<path d="M171.374 50.0242L179.783 40.321" stroke="black" stroke-width="3" stroke-miterlimit="10" stroke-linecap="round" stroke-linejoin="round"/>
<path d="M70.9998 27.4883C70.9998 27.4883 56.3372 79.6696 54.9357 85.5993C52.2404 96.9197 54.6122 104.035 60.1107 104.035C68.4123 104.035 75.6357 83.8743 93.4248 57.4602" stroke="black" stroke-width="3" stroke-miterlimit="10" stroke-linecap="round" stroke-linejoin="round"/>
<path d="M53.9653 54.8752H76.4982" stroke="black" stroke-width="3" stroke-miterlimit="10" stroke-linecap="round" stroke-linejoin="round"/>
<path d="M226.79 57.355C215.362 87.2191 211.696 103.93 216.979 103.93C222.477 103.93 232.504 86.141 235.307 82.1519" stroke="black" stroke-width="3" stroke-miterlimit="10" stroke-linecap="round" stroke-linejoin="round"/>
<path d="M306.571 56.9241C296.652 87.4351 292.556 103.93 297.731 103.93C303.229 103.93 313.04 88.5132 317.676 81.1819" stroke="black" stroke-width="3" stroke-miterlimit="10" stroke-linecap="round" stroke-linejoin="round"/>
<path d="M234.336 40.7544C235.586 40.7544 236.6 39.7408 236.6 38.4904C236.6 37.24 235.586 36.2263 234.336 36.2263C233.086 36.2263 232.072 37.24 232.072 38.4904C232.072 39.7408 233.086 40.7544 234.336 40.7544Z" fill="black" stroke="black" stroke-width="3" stroke-miterlimit="10" stroke-linecap="round" stroke-linejoin="round"/>
<path d="M261.247 61.868C252.622 60.143 246.908 61.7602 246.908 63.1618C246.908 65.9649 266.638 67.5821 266.638 61.329C266.638 55.8305 237.529 57.5555 237.529 63.1618C237.529 67.4743 272.568 70.6009 272.568 61.6524M272.568 61.6524C272.568 52.2727 233.863 53.8899 233.863 61.4368C233.863 70.3852 272.568 74.6977 272.568 61.6524Z" stroke="#7B1C14" stroke-width="2" stroke-miterlimit="10" stroke-linecap="round" stroke-linejoin="round"/>
<path d="M243.768 67.7571C231.37 84.6837 228.89 104.306 237.731 104.306C248.081 104.306 258.754 87.0556 262.851 69.1586" stroke="#7B1C14" stroke-width="3" stroke-miterlimit="10" stroke-linecap="round" stroke-linejoin="round"/>
</svg>
