<svg width="25" height="60" viewBox="0 0 25 60" fill="none" xmlns="http://www.w3.org/2000/svg">
<g id="Group 15776">
<path id="Vector" d="M3.69177 59C4.76414 47.1443 12.9261 25.3394 17.8709 8.71765" stroke="#1F6031" stroke-width="1.87634" stroke-miterlimit="10" stroke-linecap="round" stroke-linejoin="round"/>
<path id="Vector_2" d="M5.56696 51.0517C13.4906 49.2644 20.7589 46.1664 20.5206 35.8597C15.8141 42.6514 9.85644 40.2088 5.56696 51.0517Z" stroke="#1F6031" stroke-width="1.87634" stroke-miterlimit="10" stroke-linecap="round" stroke-linejoin="round"/>
<path id="Vector_3" d="M17.2804 4.69227C12.5143 3.73905 9.35674 4.63269 9.35674 5.40718C9.35674 6.95617 20.2592 7.84981 20.2592 4.39439C20.2592 1.356 4.17362 2.30922 4.17362 5.40718C4.17362 7.79023 23.5359 9.51794 23.5359 4.57311M23.5359 4.57311C23.5359 -0.610018 2.14801 0.283627 2.14801 4.45396C2.14801 9.39879 23.5359 11.7818 23.5359 4.57311Z" stroke="#7B1C14" stroke-width="1.25089" stroke-miterlimit="10" stroke-linecap="round" stroke-linejoin="round"/>
<path id="Vector_4" d="M7.6222 7.94641C0.770931 17.2999 -0.599307 28.1427 4.28594 28.1427C10.0053 28.1427 15.9033 18.6106 18.1672 8.7209" stroke="#7B1C14" stroke-width="1.87634" stroke-miterlimit="10" stroke-linecap="round" stroke-linejoin="round"/>
</g>
</svg>
